<svg xmlns="http://www.w3.org/2000/svg" viewBox="0 0 200 60" width="200" height="60">
  <!-- Background Shield -->
  <path d="M 40 10 L 160 10 C 170 10 180 20 180 30 C 180 40 170 50 160 50 L 40 50 C 30 50 20 40 20 30 C 20 20 30 10 40 10 Z" fill="#0f172a" />
  
  <!-- Secure Border -->
  <path d="M 40 12 L 160 12 C 169 12 178 21 178 30 C 178 39 169 48 160 48 L 40 48 C 31 48 22 39 22 30 C 22 21 31 12 40 12 Z" fill="none" stroke="#10b981" stroke-width="2" />
  
  <!-- Card Symbol -->
  <rect x="50" y="20" width="45" height="30" rx="4" ry="4" fill="#475569" />
  <rect x="55" y="25" width="35" height="5" rx="2" ry="2" fill="#94a3b8" />
  <rect x="55" y="35" width="25" height="3" rx="1" ry="1" fill="#94a3b8" />
  <rect x="55" y="42" width="15" height="3" rx="1" ry="1" fill="#94a3b8" />
  
  <!-- Growing Graph -->
  <polyline points="110,40 120,35 130,30 140,25 150,20" stroke="#10b981" stroke-width="3" fill="none" stroke-linecap="round" stroke-linejoin="round" />
  <circle cx="110" cy="40" r="2" fill="#10b981" />
  <circle cx="120" cy="35" r="2" fill="#10b981" />
  <circle cx="130" cy="30" r="2" fill="#10b981" />
  <circle cx="140" cy="25" r="2" fill="#10b981" />
  <circle cx="150" cy="20" r="2" fill="#10b981" />
  
  <!-- Bank Text -->
  <text x="100" y="35" font-family="Arial, sans-serif" font-size="20" font-weight="bold" text-anchor="middle" fill="white">BankIT</text>
</svg> 